<mxfile host="app.diagrams.net" modified="2024-05-06T16:54:39.389Z" agent="Mozilla/5.0 (iPhone; CPU iPhone OS 17_4_1 like Mac OS X) AppleWebKit/605.1.15 (KHTML, like Gecko) Version/17.4.1 Mobile/15E148 Safari/604.1" version="24.3.1" etag="Cmg8d2Pw3rigqku-kb-y" type="github">
  <diagram name="Page-1" id="U7ub3-8-9YoKBYqLpBM4">
    <mxGraphModel>
      <root>
        <mxCell id="0" />
        <mxCell id="1" parent="0" />
      </root>
    </mxGraphModel>
  </diagram>
</mxfile>
